<?xml version="1.0" standalone="no"?>
<!DOCTYPE svg PUBLIC "-//W3C//DTD SVG 20010904//EN"
 "http://www.w3.org/TR/2001/REC-SVG-20010904/DTD/svg10.dtd">
<svg version="1.0" xmlns="http://www.w3.org/2000/svg"
 width="500.000000pt" height="500.000000pt" viewBox="0 0 500.000000 500.000000"
 preserveAspectRatio="xMidYMid meet">
<metadata>
Created by potrace 1.14, written by Peter Selinger 2001-2017
</metadata>
<g transform="translate(0.000000,500.000000) scale(0.100000,-0.100000)"
fill="#000000" stroke="none">
<path d="M2304 3995 c-9 -23 4 -96 42 -241 38 -146 42 -184 19 -184 -20 0 -39
41 -70 150 -39 137 -86 223 -115 205 -22 -13 -9 -99 35 -235 25 -76 45 -156
45 -177 -1 -21 -2 -49 -2 -63 -1 -14 11 -42 25 -63 14 -20 35 -75 48 -122 20
-77 41 -116 54 -103 3 3 -8 57 -25 121 -31 121 -37 181 -19 192 28 18 77 -81
94 -190 12 -70 25 -115 35 -115 6 0 10 53 10 128 0 123 10 173 35 176 26 3 40
-65 64 -313 5 -55 14 -97 21 -101 7 -4 9 -13 6 -19 -4 -6 -2 -19 3 -28 11 -19
13 -15 15 32 1 23 6 31 22 33 25 4 55 76 74 181 11 63 11 64 -14 85 -49 40
-66 117 -86 381 -12 158 -30 249 -55 274 -15 15 -17 15 -30 -3 -21 -27 -28
-115 -22 -244 6 -118 -2 -162 -27 -162 -14 0 -24 36 -57 205 -22 115 -71 215
-105 215 -8 0 -17 -7 -20 -15z"/>
<path d="M1995 3673 c3 -16 21 -50 38 -78 17 -27 57 -93 90 -145 l58 -95 -7
85 -7 84 32 -27 c43 -36 54 -34 46 6 -20 99 -41 120 -60 59 -5 -18 -12 -32
-17 -32 -4 0 -22 21 -39 47 -51 74 -99 123 -121 123 -17 0 -19 -4 -13 -27z"/>
<path d="M1910 3645 c-19 -23 0 -110 46 -218 45 -104 55 -137 48 -160 -5 -15
-8 -16 -21 -6 -18 16 -35 48 -89 172 -53 122 -100 197 -124 197 -51 0 -31 -90
62 -278 46 -93 68 -146 61 -153 -15 -15 -56 23 -122 114 -144 200 -251 241
-162 62 22 -44 75 -129 118 -190 131 -186 179 -301 139 -334 -9 -8 -35 -8 -96
0 -173 23 -277 -3 -250 -63 18 -40 57 -55 181 -72 134 -19 359 -82 423 -120
95 -56 170 -184 226 -386 18 -63 37 -119 42 -125 16 -15 2 353 -17 464 -8 52
-27 126 -41 165 -14 39 -40 118 -59 175 -24 72 -56 140 -105 220 -69 115 -80
141 -59 141 23 0 46 -21 88 -79 25 -34 46 -60 47 -58 4 4 -46 179 -57 197 -7
13 -8 13 -9 0 0 -9 -7 -26 -16 -38 -13 -19 -18 -21 -31 -11 -21 18 -50 79 -89
186 -42 116 -65 161 -97 191 -22 21 -25 21 -37 7z"/>
<path d="M3057 3649 c-9 -6 -28 -32 -42 -58 -23 -47 -23 -49 -5 -54 10 -3 22
-17 26 -33 10 -38 -24 -98 -93 -165 -31 -30 -53 -48 -49 -41 14 24 85 226 82
230 -8 7 -62 -27 -108 -68 l-48 -42 0 74 c0 74 -16 118 -37 105 -15 -10 -31
-80 -38 -177 l-7 -85 41 40 41 39 0 -61 c0 -44 5 -67 18 -83 19 -23 18 -24
-30 -93 -26 -39 -48 -74 -48 -79 0 -4 15 1 33 12 38 24 65 26 73 5 12 -30 -8
-67 -73 -138 -96 -105 -169 -219 -184 -292 -9 -39 -14 -137 -14 -275 0 -217 9
-330 26 -330 5 0 9 8 9 18 0 41 60 255 89 314 37 78 98 149 156 184 62 36 291
100 424 119 121 16 162 33 181 73 27 61 -74 86 -250 64 -92 -12 -110 -4 -110
44 0 47 42 126 153 291 125 184 165 264 147 293 -21 34 -91 -27 -198 -173 -39
-53 -81 -101 -92 -107 -40 -21 -33 18 20 115 66 124 100 214 100 269 0 112
-66 39 -155 -171 -54 -126 -70 -153 -90 -153 -24 0 -18 37 24 134 43 101 71
188 71 222 0 29 -20 45 -43 33z"/>
<path d="M384 1936 c-103 -45 -78 -182 37 -201 66 -11 99 -31 99 -60 0 -45
-77 -60 -144 -29 -68 33 -89 -11 -26 -54 30 -20 44 -23 103 -20 60 3 71 7 98
35 26 25 31 39 31 73 -1 59 -28 84 -110 105 -77 19 -92 29 -92 61 0 45 53 55
133 27 41 -15 49 -15 57 -3 13 22 -5 46 -50 64 -49 19 -94 20 -136 2z"/>
<path d="M803 1942 c-18 -11 -155 -343 -149 -359 11 -28 42 -13 64 32 l22 45
75 0 75 0 22 -45 c23 -46 53 -60 65 -29 5 14 -117 324 -139 352 -12 14 -18 15
-35 4z m60 -224 c-5 -9 -87 -11 -95 -2 -3 3 6 33 20 66 l26 61 27 -59 c14 -33
24 -62 22 -66z"/>
<path d="M2414 1942 c-17 -10 -153 -343 -147 -359 11 -30 44 -13 63 32 l20 46
77 -3 78 -3 21 -40 c22 -44 57 -55 62 -20 3 20 -118 316 -139 342 -13 15 -19
16 -35 5z m35 -146 c38 -88 39 -86 -18 -86 -28 0 -51 4 -51 9 0 11 42 121 46
121 2 0 12 -20 23 -44z"/>
<path d="M3410 1939 c-85 -26 -130 -90 -130 -186 0 -112 70 -183 182 -183 71
0 110 16 106 44 -3 19 -9 21 -66 18 -71 -4 -114 9 -135 42 -39 59 -27 150 24
187 25 18 41 21 102 18 68 -4 72 -3 75 18 2 14 -4 26 -17 32 -31 17 -102 22
-141 10z"/>
<path d="M3773 1938 c-23 -30 -145 -340 -139 -354 10 -26 38 -11 60 31 l21 40
78 3 77 3 20 -46 c14 -33 25 -45 40 -45 11 0 23 6 26 14 3 8 -25 87 -62 176
-77 185 -95 211 -121 178z m67 -215 c0 -9 -17 -13 -51 -13 -57 0 -56 -2 -17
88 l20 45 24 -54 c13 -30 23 -60 24 -66z"/>
<path d="M1066 1924 c-3 -9 -6 -84 -6 -168 0 -160 9 -196 43 -183 14 5 17 27
19 129 l3 123 45 -72 c65 -105 76 -105 136 -8 21 36 42 65 47 65 4 0 7 -51 7
-114 0 -67 4 -117 10 -121 6 -3 19 -3 30 0 20 6 20 14 18 183 -3 173 -3 177
-25 180 -18 3 -33 -14 -83 -87 -33 -50 -64 -91 -68 -91 -4 0 -33 41 -66 90
-45 70 -64 90 -81 90 -13 0 -26 -7 -29 -16z"/>
<path d="M1547 1933 c-4 -3 -7 -82 -7 -173 0 -136 3 -170 15 -180 29 -24 44
-4 47 62 l3 63 62 3 c54 3 63 0 77 -20 9 -12 16 -35 16 -50 0 -30 31 -68 54
-68 25 0 37 24 22 46 -7 10 -16 35 -20 55 -4 21 -13 42 -21 49 -11 9 -10 17
11 47 37 55 30 115 -20 155 -17 14 -42 18 -127 18 -58 0 -109 -3 -112 -7z
m191 -59 c15 -10 22 -25 22 -49 0 -51 -21 -65 -96 -65 l-64 0 0 58 c0 32 3 62
7 65 13 13 109 7 131 -9z"/>
<path d="M1947 1933 c-4 -3 -7 -82 -7 -173 0 -136 3 -170 15 -180 29 -24 44
-4 47 62 l3 63 66 3 c59 3 69 6 95 33 25 26 29 38 29 85 0 50 -3 59 -33 85
-31 27 -37 29 -120 29 -49 0 -92 -3 -95 -7z m180 -69 c19 -26 16 -61 -8 -85
-16 -16 -30 -19 -67 -17 l-47 3 -3 49 c-5 74 0 79 60 74 34 -4 56 -12 65 -24z"/>
<path d="M2687 1933 c-4 -3 -7 -84 -7 -180 0 -148 2 -175 16 -180 30 -11 39
16 44 133 l5 114 99 -125 c139 -177 148 -173 144 71 -3 166 -3 169 -25 172
-28 4 -32 -12 -36 -144 l-2 -101 -95 123 c-91 118 -119 141 -143 117z"/>
<path d="M4047 1933 c-4 -3 -7 -82 -7 -173 0 -141 3 -170 16 -181 29 -24 49 1
52 70 l3 61 59 0 c65 0 90 -15 90 -55 0 -38 21 -75 46 -81 41 -10 60 20 29 46
-8 7 -15 23 -15 36 0 28 -20 74 -32 74 -6 0 2 14 16 31 41 49 28 141 -23 169
-21 11 -224 14 -234 3z m179 -49 c34 -9 47 -48 29 -89 -14 -35 -14 -35 -79
-35 l-66 0 0 65 0 65 48 0 c26 0 57 -3 68 -6z"/>
<path d="M4455 1927 c-3 -7 -4 -89 -3 -182 l3 -170 106 -3 c111 -3 137 6 123
42 -5 13 -22 16 -90 16 l-84 0 0 50 0 49 73 3 c69 3 72 4 72 28 0 24 -3 25
-73 28 l-73 3 3 47 3 47 85 5 c77 5 85 7 85 25 0 19 -8 20 -113 23 -86 2 -114
0 -117 -11z"/>
<path d="M950 1341 c-12 -24 -13 -220 -1 -240 5 -8 16 -11 25 -8 12 5 16 20
16 57 l0 50 44 0 c26 0 48 6 56 15 15 18 5 23 -55 27 -37 3 -40 5 -43 36 l-3
32 56 0 c42 0 57 4 62 16 9 24 -15 34 -84 34 -51 0 -64 -3 -73 -19z"/>
<path d="M1291 1342 c-61 -31 -86 -107 -57 -175 19 -46 49 -69 99 -74 107 -12
175 87 129 189 -31 71 -102 96 -171 60z m117 -58 c32 -37 30 -88 -7 -125 -43
-43 -91 -36 -119 18 -26 48 -5 114 42 133 29 12 57 3 84 -26z"/>
<path d="M1610 1345 c-8 -10 -11 -43 -9 -106 4 -88 5 -92 37 -120 51 -46 133
-33 160 26 12 26 17 197 6 208 -3 3 -12 3 -20 0 -11 -4 -14 -27 -14 -93 0 -66
-4 -92 -15 -104 -25 -25 -54 -29 -80 -12 -23 15 -25 22 -25 105 0 63 -4 92
-14 100 -10 9 -16 8 -26 -4z"/>
<path d="M2312 1347 c-9 -10 -12 -49 -10 -133 l3 -119 73 -3 c71 -3 74 -2 107
31 59 59 56 163 -6 210 -36 26 -149 36 -167 14z m148 -52 c7 -9 15 -38 18 -65
4 -42 1 -52 -21 -74 -20 -19 -36 -26 -67 -26 l-40 0 0 90 0 90 49 0 c31 0 53
-5 61 -15z"/>
<path d="M2721 1338 c-5 -13 -27 -67 -50 -122 -22 -54 -41 -105 -41 -112 0
-26 31 -14 41 16 11 29 13 30 70 30 55 0 59 -2 74 -30 16 -32 32 -38 41 -17 5
13 -78 220 -98 244 -15 19 -27 16 -37 -9z m58 -140 c1 -5 -15 -8 -34 -8 -40 0
-41 3 -19 56 l17 39 18 -40 c9 -22 18 -43 18 -47z"/>
<path d="M2964 1345 c-9 -23 5 -35 42 -35 l34 0 0 -104 c0 -106 8 -129 35
-106 11 9 15 37 15 111 0 98 0 99 24 99 34 0 56 10 56 25 0 20 -24 25 -116 25
-65 0 -86 -3 -90 -15z"/>
<path d="M3519 1337 c-42 -29 -59 -60 -59 -115 0 -79 51 -132 129 -132 124 0
167 184 58 250 -42 26 -86 25 -128 -3z m88 -27 c47 -17 70 -75 49 -125 -46
-108 -184 -37 -145 75 9 24 34 47 65 60 1 0 15 -5 31 -10z"/>
<path d="M3840 1340 c-11 -20 -14 -208 -4 -234 3 -9 12 -16 20 -16 10 0 14 23
16 93 l3 92 73 -92 c103 -130 112 -127 112 47 0 78 -4 111 -13 119 -22 18 -27
2 -27 -86 0 -46 -3 -83 -7 -83 -5 0 -37 39 -73 85 -36 47 -71 87 -77 89 -7 3
-17 -3 -23 -14z"/>
<path d="M1952 1223 c3 -106 6 -128 18 -128 12 0 16 18 18 89 l3 88 71 -91
c96 -124 102 -121 106 42 2 121 2 127 -17 127 -18 0 -20 -8 -23 -87 l-3 -88
-69 88 c-43 54 -76 87 -88 87 -17 0 -18 -8 -16 -127z"/>
<path d="M3292 1223 c3 -106 6 -128 18 -128 12 0 15 22 18 128 2 122 2 127
-18 127 -20 0 -20 -5 -18 -127z"/>
</g>
</svg>
